<?xml version="1.0" encoding="utf-8"?>
<!-- Generator: Adobe Illustrator 25.4.1, SVG Export Plug-In . SVG Version: 6.00 Build 0)  -->
<svg version="1.1" id="Layer_1" xmlns="http://www.w3.org/2000/svg" xmlns:xlink="http://www.w3.org/1999/xlink" x="0px" y="0px"
	 viewBox="0 0 100 100" style="enable-background:new 0 0 100 100;" xml:space="preserve">
<style type="text/css">
	.st0{fill:#F6EEE1;}
	.st1{fill:#FFFFFF;}
	.st2{fill:#615A53;}
	.st3{fill:none;stroke:#FFFFFF;stroke-width:2.2866;stroke-linecap:round;stroke-linejoin:round;stroke-miterlimit:10;}
	.st4{fill:#EF3C18;}
	.st5{fill:none;stroke:#FFFFFF;stroke-miterlimit:10;}
	.st6{fill:#1E150B;}
	.st7{fill:#EF3D17;}
	.st8{fill:none;stroke:#EF3D17;stroke-width:8.7821;stroke-miterlimit:10;}
	.st9{fill:#C8BEAA;}
	.st10{fill:none;stroke:#FFFFFF;stroke-width:2.8245;stroke-linecap:round;stroke-linejoin:round;stroke-miterlimit:10;}
	.st11{fill:none;stroke:#EF3D17;stroke-width:4.4893;stroke-miterlimit:10;}
	.st12{fill:none;stroke:#FFFFFF;stroke-width:1.938;stroke-linecap:round;stroke-linejoin:round;stroke-miterlimit:10;}
	.st13{opacity:0.95;}
	.st14{opacity:0.68;}
	.st15{opacity:0.71;fill:none;stroke:url(#SVGID_1_);stroke-width:0.78;stroke-miterlimit:10;}
	
		.st16{opacity:0.71;fill:none;stroke:url(#SVGID_00000114752585956737624640000009968681117678262685_);stroke-width:0.78;stroke-miterlimit:10;}
	.st17{opacity:0.68;fill:#C8BEAA;}
	
		.st18{opacity:0.71;fill:none;stroke:url(#SVGID_00000031207257260861488160000013670261488753826719_);stroke-width:0.78;stroke-miterlimit:10;}
	.st19{fill:none;stroke:#FFFFFF;stroke-width:0.75;stroke-miterlimit:10;}
	.st20{fill:none;stroke:#FFFFFF;stroke-width:0.75;stroke-miterlimit:10;stroke-dasharray:4.1016,4.1016;}
	.st21{fill:none;stroke:#C8BEAA;stroke-miterlimit:10;}
	.st22{fill:none;stroke:#C8BEAA;stroke-width:1.9849;stroke-linecap:round;stroke-miterlimit:10;}
	.st23{fill:none;stroke:#C8BEAA;stroke-width:1.9849;stroke-linecap:round;stroke-miterlimit:10;stroke-dasharray:0,4.9706;}
	.st24{clip-path:url(#SVGID_00000182529133348040800660000015121159335703226019_);}
	.st25{fill:none;stroke:#C8BEAA;stroke-width:1.9849;stroke-linecap:round;stroke-miterlimit:10;stroke-dasharray:0,4.9726;}
	.st26{clip-path:url(#SVGID_00000067201939387767711460000007456367867902187934_);}
	.st27{fill:none;stroke:#C8BEAA;stroke-width:1.9849;stroke-linecap:round;stroke-miterlimit:10;stroke-dasharray:0,4.9532;}
	.st28{fill:none;stroke:#C8BEAA;stroke-width:1.9849;stroke-linecap:round;stroke-miterlimit:10;stroke-dasharray:0,4.9841;}
	.st29{fill:none;stroke:#C8BEAA;stroke-width:1.9849;stroke-linecap:round;stroke-miterlimit:10;stroke-dasharray:0,4.9651;}
	.st30{clip-path:url(#SVGID_00000057145058292727599220000014087659446750650525_);}
	.st31{fill:#10FF3D;}
	.st32{fill:none;}
	
		.st33{opacity:0.71;fill:none;stroke:url(#SVGID_00000103257855326704836160000010406926973863159986_);stroke-width:0.78;stroke-miterlimit:10;}
	
		.st34{opacity:0.71;fill:none;stroke:url(#SVGID_00000070833450481456379070000002976807784095201202_);stroke-width:0.78;stroke-miterlimit:10;}
	
		.st35{opacity:0.71;fill:none;stroke:url(#SVGID_00000073707386164315207740000007536073881629911949_);stroke-width:0.78;stroke-miterlimit:10;}
	.st36{fill:none;stroke:#FFFFFF;stroke-width:1.541;stroke-linecap:round;stroke-linejoin:round;stroke-miterlimit:10;}
	.st37{fill:#EF3D17;stroke:#FFFFFF;stroke-miterlimit:10;}
	.st38{fill:#FFFFFF;stroke:#FFFFFF;stroke-miterlimit:10;}
	.st39{fill:#383887;}
	.st40{fill:#4D9F49;}
	.st41{fill:#ED993E;}
	.st42{fill:#D82550;}
	
		.st43{opacity:0.71;fill:none;stroke:url(#SVGID_00000111186572013393982620000017404375982790868880_);stroke-width:0.78;stroke-miterlimit:10;}
	
		.st44{opacity:0.71;fill:none;stroke:url(#SVGID_00000049187975364364576380000011317550310141170861_);stroke-width:0.78;stroke-miterlimit:10;}
	
		.st45{opacity:0.71;fill:none;stroke:url(#SVGID_00000178207272161071576430000015707601619185068981_);stroke-width:0.78;stroke-miterlimit:10;}
	.st46{fill:none;stroke:#C8BEAA;stroke-width:1.9849;stroke-linecap:round;stroke-miterlimit:10;stroke-dasharray:0,4.9673;}
	.st47{clip-path:url(#SVGID_00000135670050827327361550000010796254496728429966_);}
	.st48{clip-path:url(#SVGID_00000009555295232932030570000004140130702745032857_);}
</style>
<path class="st7" d="M71.72,19.15c-0.57-0.65-1.39-1.03-2.25-1.04H24.53c-0.8,0-1.56,0.32-2.12,0.88c-0.56,0.56-0.88,1.33-0.88,2.12
	v57.07c0,0.8,0.32,1.56,0.88,2.12c0.56,0.56,1.33,0.88,2.12,0.88h54.81h0c0.8,0,1.56-0.32,2.12-0.88c0.56-0.56,0.88-1.33,0.88-2.12
	V32.5c0-0.72-0.27-1.42-0.75-1.97L71.72,19.15z M39.54,24.12h23.28l0,11.64H39.54L39.54,24.12z M62.82,75.18H39.54V56.03h23.28
	V75.18z M76.33,75.18h-7.51l0-22.15c0-0.8-0.32-1.56-0.88-2.12c-0.56-0.56-1.33-0.88-2.12-0.88H36.54c-0.8,0-1.56,0.32-2.12,0.88
	c-0.56,0.56-0.88,1.33-0.88,2.12v22.15h-6.01V24.12h6.01v14.64c0,0.8,0.32,1.56,0.88,2.12c0.56,0.56,1.33,0.88,2.12,0.88h29.28
	c0.8,0,1.56-0.32,2.12-0.88c0.56-0.56,0.88-1.33,0.88-2.12V24.97l7.51,8.65L76.33,75.18z"/>
</svg>
